<svg width="29" height="28" viewBox="0 0 29 28" fill="none" xmlns="http://www.w3.org/2000/svg">
<path d="M15.2524 6.5293H13.7492C13.6117 6.5293 13.4992 6.6418 13.4992 6.7793V15.3824C13.4992 15.4637 13.5367 15.5387 13.6024 15.5856L18.768 19.3574C18.8805 19.4387 19.0367 19.4168 19.118 19.3043L20.0117 18.0856C20.0961 17.9699 20.0711 17.8137 19.9586 17.7356L15.5024 14.5137V6.7793C15.5024 6.6418 15.3899 6.5293 15.2524 6.5293ZM22.1211 8.8793L27.0211 10.0762C27.1774 10.1137 27.3305 9.99493 27.3305 9.83555L27.3555 4.78868C27.3555 4.5793 27.1149 4.46055 26.9524 4.5918L22.0274 8.43868C21.9901 8.46747 21.9618 8.50619 21.9456 8.55037C21.9294 8.59456 21.926 8.64241 21.9358 8.68844C21.9456 8.73447 21.9682 8.7768 22.001 8.81057C22.0337 8.84433 22.0754 8.86816 22.1211 8.8793ZM27.3617 18.2887L25.5899 17.6793C25.5281 17.6581 25.4605 17.662 25.4015 17.69C25.3425 17.718 25.2968 17.768 25.2742 17.8293C25.2149 17.9887 25.1524 18.1449 25.0867 18.3012C24.5305 19.6168 23.7336 20.8012 22.7149 21.8168C21.7074 22.8274 20.5135 23.6329 19.1992 24.1887C17.8378 24.7643 16.3743 25.0598 14.8961 25.0574C13.4024 25.0574 11.9555 24.7668 10.593 24.1887C9.27873 23.6329 8.08479 22.8274 7.07735 21.8168C6.06173 20.8012 5.26485 19.6168 4.70548 18.3012C4.13303 16.9389 3.83974 15.4757 3.84298 13.9981C3.84298 12.5043 4.1336 11.0543 4.71173 9.6918C5.26798 8.37618 6.06486 7.1918 7.08361 6.17618C8.09104 5.16561 9.28498 4.3601 10.5992 3.8043C11.9555 3.22618 13.4055 2.93555 14.8992 2.93555C16.393 2.93555 17.8399 3.22618 19.2024 3.8043C20.5166 4.3601 21.7105 5.16561 22.718 6.17618C23.0367 6.49805 23.3367 6.83243 23.6117 7.18555L25.4805 5.72305C23.0211 2.5793 19.193 0.557425 14.893 0.56055C7.40548 0.563675 1.39298 6.64493 1.46798 14.1356C1.54298 21.4949 7.52736 27.4356 14.8992 27.4356C20.6961 27.4356 25.6336 23.7606 27.5149 18.6137C27.5617 18.4824 27.493 18.3356 27.3617 18.2887Z" fill="black" fill-opacity="0.5"/>
</svg>
