<svg width="28" height="28" viewBox="0 0 28 28" fill="none" xmlns="http://www.w3.org/2000/svg">
<g clip-path="url(#clip0_141_541)">
<path d="M27.5798 13.7794L15.5048 1.71063L14.6954 0.901251C14.511 0.718052 14.2616 0.615234 14.0017 0.615234C13.7417 0.615234 13.4924 0.718052 13.3079 0.901251L0.423567 13.7794C0.234602 13.9676 0.0852592 14.1918 -0.0156451 14.4387C-0.116549 14.6856 -0.166971 14.9502 -0.163933 15.2169C-0.151433 16.3169 0.764192 17.195 1.86419 17.195H3.19232V27.3731H24.8111V17.195H26.1673C26.7017 17.195 27.2048 16.9856 27.5829 16.6075C27.7691 16.4219 27.9166 16.2012 28.017 15.9582C28.1173 15.7152 28.1684 15.4548 28.1673 15.1919C28.1673 14.6606 27.9579 14.1575 27.5798 13.7794ZM15.7517 25.1231H12.2517V18.7481H15.7517V25.1231ZM22.5611 14.945V25.1231H17.7517V17.9981C17.7517 17.3075 17.1923 16.7481 16.5017 16.7481H11.5017C10.8111 16.7481 10.2517 17.3075 10.2517 17.9981V25.1231H5.44232V14.945H2.44232L14.0048 3.39188L14.7267 4.11375L25.5642 14.945H22.5611Z" fill="black" fill-opacity="0.5"/>
</g>
<defs>
<clipPath id="clip0_141_541">
<rect width="28" height="28" fill="white"/>
</clipPath>
</defs>
</svg>
