<svg width="119" height="39" viewBox="0 0 119 39" fill="none" xmlns="http://www.w3.org/2000/svg">
<path d="M35.5783 21.8318C35.5783 20.4558 35.8343 19.2478 36.3463 18.2078C36.8743 17.1678 37.5863 16.3678 38.4823 15.8078C39.3783 15.2478 40.3783 14.9678 41.4823 14.9678C42.4263 14.9678 43.2503 15.1598 43.9543 15.5438C44.6743 15.9278 45.2263 16.4318 45.6103 17.0558V15.1598H49.7143V28.5518H45.6103V26.6558C45.2103 27.2798 44.6503 27.7838 43.9303 28.1678C43.2263 28.5518 42.4023 28.7438 41.4583 28.7438C40.3703 28.7438 39.3783 28.4638 38.4823 27.9038C37.5863 27.3278 36.8743 26.5198 36.3463 25.4798C35.8343 24.4238 35.5783 23.2078 35.5783 21.8318ZM45.6103 21.8558C45.6103 20.8318 45.3223 20.0238 44.7463 19.4318C44.1863 18.8398 43.4983 18.5438 42.6823 18.5438C41.8663 18.5438 41.1703 18.8398 40.5943 19.4318C40.0343 20.0078 39.7543 20.8078 39.7543 21.8318C39.7543 22.8558 40.0343 23.6718 40.5943 24.2798C41.1703 24.8718 41.8663 25.1678 42.6823 25.1678C43.4983 25.1678 44.1863 24.8718 44.7463 24.2798C45.3223 23.6878 45.6103 22.8798 45.6103 21.8558ZM60.1473 25.0718V28.5518H58.0593C56.5713 28.5518 55.4113 28.1918 54.5793 27.4718C53.7473 26.7358 53.3313 25.5438 53.3313 23.8958V18.5678H51.6993V15.1598H53.3313V11.8958H57.4353V15.1598H60.1233V18.5678H57.4353V23.9438C57.4353 24.3438 57.5313 24.6318 57.7233 24.8078C57.9153 24.9838 58.2353 25.0718 58.6833 25.0718H60.1473ZM75.0573 21.6398C75.0573 22.0238 75.0333 22.4238 74.9853 22.8398H65.6973C65.7613 23.6718 66.0253 24.3118 66.4893 24.7598C66.9693 25.1918 67.5533 25.4078 68.2413 25.4078C69.2653 25.4078 69.9773 24.9758 70.3773 24.1118H74.7453C74.5213 24.9918 74.1133 25.7838 73.5213 26.4878C72.9453 27.1918 72.2173 27.7438 71.3373 28.1438C70.4573 28.5438 69.4733 28.7438 68.3853 28.7438C67.0733 28.7438 65.9053 28.4638 64.8813 27.9038C63.8573 27.3438 63.0573 26.5438 62.4813 25.5038C61.9053 24.4638 61.6173 23.2478 61.6173 21.8558C61.6173 20.4638 61.8973 19.2478 62.4573 18.2078C63.0333 17.1678 63.8333 16.3678 64.8573 15.8078C65.8813 15.2478 67.0573 14.9678 68.3853 14.9678C69.6813 14.9678 70.8333 15.2398 71.8413 15.7838C72.8493 16.3278 73.6333 17.1038 74.1933 18.1118C74.7693 19.1198 75.0573 20.2958 75.0573 21.6398ZM70.8573 20.5598C70.8573 19.8558 70.6173 19.2958 70.1373 18.8798C69.6573 18.4638 69.0573 18.2558 68.3373 18.2558C67.6493 18.2558 67.0653 18.4558 66.5853 18.8558C66.1213 19.2558 65.8333 19.8238 65.7213 20.5598H70.8573ZM81.3264 17.3918C81.8064 16.6558 82.4064 16.0798 83.1264 15.6638C83.8464 15.2318 84.6464 15.0158 85.5264 15.0158V19.3598H84.3984C83.3744 19.3598 82.6064 19.5838 82.0944 20.0318C81.5824 20.4638 81.3264 21.2318 81.3264 22.3358V28.5518H77.2224V15.1598H81.3264V17.3918ZM95.648 15.0158C97.216 15.0158 98.464 15.5278 99.392 16.5518C100.336 17.5598 100.808 18.9518 100.808 20.7278V28.5518H96.728V21.2798C96.728 20.3838 96.496 19.6878 96.032 19.1918C95.568 18.6958 94.944 18.4478 94.16 18.4478C93.376 18.4478 92.752 18.6958 92.288 19.1918C91.824 19.6878 91.592 20.3838 91.592 21.2798V28.5518H87.488V15.1598H91.592V16.9358C92.008 16.3438 92.568 15.8798 93.272 15.5438C93.976 15.1918 94.768 15.0158 95.648 15.0158ZM102.844 21.8318C102.844 20.4558 103.1 19.2478 103.612 18.2078C104.14 17.1678 104.852 16.3678 105.748 15.8078C106.644 15.2478 107.644 14.9678 108.748 14.9678C109.692 14.9678 110.516 15.1598 111.22 15.5438C111.94 15.9278 112.492 16.4318 112.876 17.0558V15.1598H116.98V28.5518H112.876V26.6558C112.476 27.2798 111.916 27.7838 111.196 28.1678C110.492 28.5518 109.668 28.7438 108.724 28.7438C107.636 28.7438 106.644 28.4638 105.748 27.9038C104.852 27.3278 104.14 26.5198 103.612 25.4798C103.1 24.4238 102.844 23.2078 102.844 21.8318ZM112.876 21.8558C112.876 20.8318 112.588 20.0238 112.012 19.4318C111.452 18.8398 110.764 18.5438 109.948 18.5438C109.132 18.5438 108.436 18.8398 107.86 19.4318C107.3 20.0078 107.02 20.8078 107.02 21.8318C107.02 22.8558 107.3 23.6718 107.86 24.2798C108.436 24.8718 109.132 25.1678 109.948 25.1678C110.764 25.1678 111.452 24.8718 112.012 24.2798C112.588 23.6878 112.876 22.8798 112.876 21.8558Z" fill="#FF787D"/>
<path fill-rule="evenodd" clip-rule="evenodd" d="M29.2947 1.82344C26.5096 0.407228 23.2934 0.981997 20.9287 2.3069C19.639 3.02949 18.1863 4.52757 17.2006 5.61824C16.6711 6.2041 16.207 6.75208 15.8756 7.15295C15.7095 7.35392 15.5757 7.51924 15.4824 7.63549C15.4358 7.69365 15.3992 7.73962 15.3738 7.77173L15.3441 7.80931L15.3358 7.81994L15.3332 7.82314L15.3324 7.82421L15.3321 7.82461C15.332 7.82477 15.3319 7.82491 16.8039 8.97711L15.3319 7.82492C14.651 8.69471 14.8042 9.95174 15.674 10.6326C16.5437 11.3133 17.8006 11.1602 18.4815 10.2906L20.9287 2.3069L18.4817 10.2904L18.4822 10.2897L18.4872 10.2834L18.5097 10.2549C18.5303 10.2289 18.5616 10.1895 18.6028 10.1381C18.6852 10.0354 18.8065 9.8855 18.9587 9.70144C19.2638 9.33226 19.6885 8.83104 20.1682 8.30027C21.2009 7.15767 22.248 6.15276 22.8838 5.79651C24.4748 4.90515 26.2371 4.7561 27.4816 5.38893C28.7155 6.01641 29.4033 6.86448 29.7388 7.85943C30.091 8.9038 30.1135 10.2939 29.6453 12.0313C29.6011 12.1953 29.5431 12.3689 29.4718 12.5517H33.6385C34.1227 10.4818 34.1543 8.43498 33.5291 6.58119C32.8349 4.52272 31.3917 2.88982 29.2947 1.82344ZM31.505 17.0998L31.4488 17.1819C30.5525 18.4906 29.4434 19.842 28.256 21.1567C28.9263 20.4147 29.5714 19.6611 30.1671 18.9105C30.6346 18.3213 31.0876 17.7146 31.505 17.0998ZM18.1477 30.5955C18.1029 30.5401 17.893 30.2791 16.9067 29.0517L17.806 30.1708C18.045 30.4681 18.1225 30.5644 18.1477 30.5955ZM16.9976 31.0497C17.3551 31.0334 17.7093 30.9215 18.0193 30.7137C17.713 30.9188 17.359 31.0332 16.9976 31.0497ZM12.9062 28.2562C11.7464 27.2274 10.3231 25.9232 8.8605 24.4816C7.11785 22.7641 5.29068 20.8234 3.78273 18.9021C2.31319 17.0297 0.990525 14.9833 0.475496 13.0721C-0.135331 10.8054 -0.195445 8.56112 0.517028 6.55189C1.24355 4.50303 2.71021 2.88322 4.7943 1.82344C5.77888 1.32277 6.98292 1.71506 7.48359 2.69964C7.98426 3.68423 7.59197 4.88826 6.60738 5.38893C5.36044 6.02301 4.64323 6.88418 4.28702 7.88872C3.91676 8.9329 3.87504 10.3144 4.33772 12.0313C4.63311 13.1275 5.52816 14.6472 6.92932 16.4325C8.29207 18.1688 9.98861 19.9772 11.6684 21.6328C12.0857 22.0441 12.5003 22.4443 12.9062 22.8298V25.5517V28.2562ZM17.6435 25.8231C17.6435 25.8231 17.6435 25.8231 17.6435 25.8231C18.4432 25.1338 19.4262 24.2663 20.4863 23.2858C20.8282 22.9696 21.1761 22.6434 21.527 22.3093C20.0873 23.6803 18.7202 24.8945 17.6646 25.8049C17.6575 25.811 17.6505 25.817 17.6435 25.8231ZM24.1009 19.7497C25.1143 18.6922 26.085 17.6091 26.9323 16.5517H26.932C26.084 17.6098 25.1136 18.6927 24.1009 19.7497Z" fill="#FF787D"/>
<path d="M2.4066 12.5517C1.3331 8.56811 2.36981 5.30002 5.70084 3.60616C7.71559 2.58163 10.3181 2.76216 12.1827 4.05168C15 6 17 9.49997 17 9.49997C17 9.49997 19.9807 5.13052 21.9062 4.05168C23.8841 2.94355 26.3734 2.58164 28.3881 3.60616" stroke="#FF787D" stroke-width="4" stroke-linecap="round" stroke-linejoin="round"/>
<path d="M33.0103 14.5717V28.5717H28.9062V20.1757L25.1383 24.4634L22.6982 24.4634L18.9062 20.1557V28.5716H14.8022V14.5717H19.6502L23.97 20.1357L28.1862 14.5717H33.0103Z" fill="#FF787D"/>
</svg>
