<svg width="34" height="32" viewBox="0 0 34 32" fill="none" xmlns="http://www.w3.org/2000/svg">
<path fill-rule="evenodd" clip-rule="evenodd" d="M29.2947 1.82344C26.5096 0.407228 23.2934 0.981997 20.9287 2.3069C19.639 3.02949 18.1863 4.52757 17.2006 5.61824C16.6711 6.2041 16.207 6.75208 15.8756 7.15295C15.7095 7.35392 15.5757 7.51924 15.4824 7.63549C15.4358 7.69365 15.3992 7.73962 15.3738 7.77173L15.3441 7.80931L15.3358 7.81994L15.3332 7.82314L15.3324 7.82421L15.3321 7.82461C15.332 7.82477 15.3319 7.82491 16.8039 8.97711L15.3319 7.82492C14.651 8.69471 14.8042 9.95174 15.674 10.6326C16.5437 11.3133 17.8006 11.1602 18.4815 10.2906L20.9287 2.3069L18.4817 10.2904L18.4822 10.2897L18.4872 10.2834L18.5097 10.2549C18.5303 10.2289 18.5616 10.1895 18.6028 10.1381C18.6852 10.0354 18.8065 9.8855 18.9587 9.70144C19.2638 9.33226 19.6885 8.83104 20.1682 8.30027C21.2009 7.15767 22.248 6.15276 22.8838 5.79651C24.4748 4.90515 26.2371 4.7561 27.4816 5.38893C28.7155 6.01641 29.4033 6.86448 29.7388 7.85943C30.091 8.9038 30.1135 10.2939 29.6453 12.0313C29.6011 12.1953 29.5431 12.3689 29.4718 12.5517H33.6385C34.1227 10.4818 34.1543 8.43498 33.5291 6.58119C32.8349 4.52272 31.3917 2.88982 29.2947 1.82344ZM31.505 17.0998L31.4488 17.1819C30.5525 18.4906 29.4434 19.842 28.256 21.1567C28.9263 20.4147 29.5714 19.6611 30.1671 18.9105C30.6346 18.3213 31.0876 17.7146 31.505 17.0998ZM18.1477 30.5955C18.1029 30.5401 17.893 30.2791 16.9067 29.0517L17.806 30.1708C18.045 30.4681 18.1225 30.5644 18.1477 30.5955ZM16.9976 31.0497C17.3551 31.0334 17.7093 30.9215 18.0193 30.7137C17.713 30.9188 17.359 31.0332 16.9976 31.0497ZM12.9062 28.2562C11.7464 27.2274 10.3231 25.9232 8.8605 24.4816C7.11785 22.7641 5.29068 20.8234 3.78273 18.9021C2.31319 17.0297 0.990525 14.9833 0.475496 13.0721C-0.135331 10.8054 -0.195445 8.56112 0.517028 6.55189C1.24355 4.50303 2.71021 2.88322 4.7943 1.82344C5.77888 1.32277 6.98292 1.71506 7.48359 2.69964C7.98426 3.68423 7.59197 4.88826 6.60738 5.38893C5.36044 6.02301 4.64323 6.88418 4.28702 7.88872C3.91676 8.9329 3.87504 10.3144 4.33772 12.0313C4.63311 13.1275 5.52816 14.6472 6.92932 16.4325C8.29207 18.1688 9.98861 19.9772 11.6684 21.6328C12.0857 22.0441 12.5003 22.4443 12.9062 22.8298V25.5517V28.2562ZM17.6435 25.8231C17.6435 25.8231 17.6435 25.8231 17.6435 25.8231C18.4432 25.1338 19.4262 24.2663 20.4863 23.2858C20.8282 22.9696 21.1761 22.6434 21.527 22.3093C20.0873 23.6803 18.7202 24.8945 17.6646 25.8049C17.6575 25.811 17.6505 25.817 17.6435 25.8231ZM24.1009 19.7497C25.1143 18.6922 26.085 17.6091 26.9323 16.5517H26.932C26.084 17.6098 25.1136 18.6927 24.1009 19.7497Z" fill="#FF787D"/>
<path d="M2.4066 12.5517C1.3331 8.56811 2.36981 5.30002 5.70084 3.60616C7.71559 2.58163 10.3181 2.76216 12.1827 4.05168C15 6 17 9.49997 17 9.49997C17 9.49997 19.9807 5.13052 21.9062 4.05168C23.8841 2.94355 26.3734 2.58164 28.3881 3.60616" stroke="#FF787D" stroke-width="4" stroke-linecap="round" stroke-linejoin="round"/>
<path d="M33.0103 14.5718V28.5718H28.9062V20.1758L25.1383 24.4635L22.6982 24.4635L18.9062 20.1558V28.5718H14.8022V14.5718H19.6502L23.97 20.1359L28.1862 14.5718H33.0103Z" fill="#FF787D"/>
</svg>
