<svg width="119" height="39" viewBox="0 0 119 39" fill="none" xmlns="http://www.w3.org/2000/svg">
<path d="M35.5783 21.8317C35.5783 20.4557 35.8343 19.2477 36.3463 18.2077C36.8743 17.1677 37.5863 16.3677 38.4823 15.8077C39.3783 15.2477 40.3783 14.9677 41.4823 14.9677C42.4263 14.9677 43.2503 15.1597 43.9543 15.5437C44.6743 15.9277 45.2263 16.4317 45.6103 17.0557V15.1597H49.7143V28.5517H45.6103V26.6557C45.2103 27.2797 44.6503 27.7837 43.9303 28.1677C43.2263 28.5517 42.4023 28.7437 41.4583 28.7437C40.3703 28.7437 39.3783 28.4637 38.4823 27.9037C37.5863 27.3277 36.8743 26.5197 36.3463 25.4797C35.8343 24.4237 35.5783 23.2077 35.5783 21.8317ZM45.6103 21.8557C45.6103 20.8317 45.3223 20.0237 44.7463 19.4317C44.1863 18.8397 43.4983 18.5437 42.6823 18.5437C41.8663 18.5437 41.1703 18.8397 40.5943 19.4317C40.0343 20.0077 39.7543 20.8077 39.7543 21.8317C39.7543 22.8557 40.0343 23.6717 40.5943 24.2797C41.1703 24.8717 41.8663 25.1677 42.6823 25.1677C43.4983 25.1677 44.1863 24.8717 44.7463 24.2797C45.3223 23.6877 45.6103 22.8797 45.6103 21.8557ZM60.1473 25.0717V28.5517H58.0593C56.5713 28.5517 55.4113 28.1917 54.5793 27.4717C53.7473 26.7357 53.3313 25.5437 53.3313 23.8957V18.5677H51.6993V15.1597H53.3313V11.8957H57.4353V15.1597H60.1233V18.5677H57.4353V23.9437C57.4353 24.3437 57.5313 24.6317 57.7233 24.8077C57.9153 24.9837 58.2353 25.0717 58.6833 25.0717H60.1473ZM75.0573 21.6397C75.0573 22.0237 75.0333 22.4237 74.9853 22.8397H65.6973C65.7613 23.6717 66.0253 24.3117 66.4893 24.7597C66.9693 25.1917 67.5533 25.4077 68.2413 25.4077C69.2653 25.4077 69.9773 24.9757 70.3773 24.1117H74.7453C74.5213 24.9917 74.1133 25.7837 73.5213 26.4877C72.9453 27.1917 72.2173 27.7437 71.3373 28.1437C70.4573 28.5437 69.4733 28.7437 68.3853 28.7437C67.0733 28.7437 65.9053 28.4637 64.8813 27.9037C63.8573 27.3437 63.0573 26.5437 62.4813 25.5037C61.9053 24.4637 61.6173 23.2477 61.6173 21.8557C61.6173 20.4637 61.8973 19.2477 62.4573 18.2077C63.0333 17.1677 63.8333 16.3677 64.8573 15.8077C65.8813 15.2477 67.0573 14.9677 68.3853 14.9677C69.6813 14.9677 70.8333 15.2397 71.8413 15.7837C72.8493 16.3277 73.6333 17.1037 74.1933 18.1117C74.7693 19.1197 75.0573 20.2957 75.0573 21.6397ZM70.8573 20.5597C70.8573 19.8557 70.6173 19.2957 70.1373 18.8797C69.6573 18.4637 69.0573 18.2557 68.3373 18.2557C67.6493 18.2557 67.0653 18.4557 66.5853 18.8557C66.1213 19.2557 65.8333 19.8237 65.7213 20.5597H70.8573ZM81.3264 17.3917C81.8064 16.6557 82.4064 16.0797 83.1264 15.6637C83.8464 15.2317 84.6464 15.0157 85.5264 15.0157V19.3597H84.3984C83.3744 19.3597 82.6064 19.5837 82.0944 20.0317C81.5824 20.4637 81.3264 21.2317 81.3264 22.3357V28.5517H77.2224V15.1597H81.3264V17.3917ZM95.648 15.0157C97.216 15.0157 98.464 15.5277 99.392 16.5517C100.336 17.5597 100.808 18.9517 100.808 20.7277V28.5517H96.728V21.2797C96.728 20.3837 96.496 19.6877 96.032 19.1917C95.568 18.6957 94.944 18.4477 94.16 18.4477C93.376 18.4477 92.752 18.6957 92.288 19.1917C91.824 19.6877 91.592 20.3837 91.592 21.2797V28.5517H87.488V15.1597H91.592V16.9357C92.008 16.3437 92.568 15.8797 93.272 15.5437C93.976 15.1917 94.768 15.0157 95.648 15.0157ZM102.844 21.8317C102.844 20.4557 103.1 19.2477 103.612 18.2077C104.14 17.1677 104.852 16.3677 105.748 15.8077C106.644 15.2477 107.644 14.9677 108.748 14.9677C109.692 14.9677 110.516 15.1597 111.22 15.5437C111.94 15.9277 112.492 16.4317 112.876 17.0557V15.1597H116.98V28.5517H112.876V26.6557C112.476 27.2797 111.916 27.7837 111.196 28.1677C110.492 28.5517 109.668 28.7437 108.724 28.7437C107.636 28.7437 106.644 28.4637 105.748 27.9037C104.852 27.3277 104.14 26.5197 103.612 25.4797C103.1 24.4237 102.844 23.2077 102.844 21.8317ZM112.876 21.8557C112.876 20.8317 112.588 20.0237 112.012 19.4317C111.452 18.8397 110.764 18.5437 109.948 18.5437C109.132 18.5437 108.436 18.8397 107.86 19.4317C107.3 20.0077 107.02 20.8077 107.02 21.8317C107.02 22.8557 107.3 23.6717 107.86 24.2797C108.436 24.8717 109.132 25.1677 109.948 25.1677C110.764 25.1677 111.452 24.8717 112.012 24.2797C112.588 23.6877 112.876 22.8797 112.876 21.8557Z" fill="#FF787D"/>
<path fill-rule="evenodd" clip-rule="evenodd" d="M29.2947 1.82344C26.5096 0.407228 23.2934 0.981997 20.9287 2.3069C19.639 3.02949 18.1863 4.52757 17.2006 5.61824C16.6711 6.2041 16.207 6.75208 15.8756 7.15295C15.7095 7.35392 15.5757 7.51924 15.4824 7.63549C15.4358 7.69365 15.3992 7.73962 15.3738 7.77173L15.3441 7.80931L15.3358 7.81994L15.3332 7.82314L15.3324 7.82421L15.3321 7.82461C15.332 7.82477 15.3319 7.82491 16.8039 8.97711L15.3319 7.82492C14.651 8.69471 14.8042 9.95174 15.674 10.6326C16.5437 11.3133 17.8006 11.1602 18.4815 10.2906L20.9287 2.3069L18.4817 10.2904L18.4822 10.2897L18.4872 10.2834L18.5097 10.2549C18.5303 10.2289 18.5616 10.1895 18.6028 10.1381C18.6852 10.0354 18.8065 9.8855 18.9587 9.70144C19.2638 9.33226 19.6885 8.83104 20.1682 8.30027C21.2009 7.15767 22.248 6.15276 22.8838 5.79651C24.4748 4.90515 26.2371 4.7561 27.4816 5.38893C28.7155 6.01641 29.4033 6.86448 29.7388 7.85943C30.091 8.9038 30.1135 10.2939 29.6453 12.0313C29.6011 12.1953 29.5431 12.3689 29.4718 12.5517H33.6385C34.1227 10.4818 34.1543 8.43498 33.5291 6.58119C32.8349 4.52272 31.3917 2.88982 29.2947 1.82344ZM31.505 17.0998L31.4488 17.1819C30.5525 18.4906 29.4434 19.842 28.256 21.1567C28.9263 20.4147 29.5714 19.6611 30.1671 18.9105C30.6346 18.3213 31.0876 17.7146 31.505 17.0998ZM18.1477 30.5955C18.1029 30.5401 17.893 30.2791 16.9067 29.0517L17.806 30.1708C18.045 30.4681 18.1225 30.5644 18.1477 30.5955ZM16.9976 31.0497C17.3551 31.0334 17.7093 30.9215 18.0193 30.7137C17.713 30.9188 17.359 31.0332 16.9976 31.0497ZM12.9062 28.2562C11.7464 27.2274 10.3231 25.9232 8.8605 24.4816C7.11785 22.7641 5.29068 20.8234 3.78273 18.9021C2.31319 17.0297 0.990525 14.9833 0.475496 13.0721C-0.135331 10.8054 -0.195445 8.56112 0.517028 6.55189C1.24355 4.50303 2.71021 2.88322 4.7943 1.82344C5.77888 1.32277 6.98292 1.71506 7.48359 2.69964C7.98426 3.68423 7.59197 4.88826 6.60738 5.38893C5.36044 6.02301 4.64323 6.88418 4.28702 7.88872C3.91676 8.9329 3.87504 10.3144 4.33772 12.0313C4.63311 13.1275 5.52816 14.6472 6.92932 16.4325C8.29207 18.1688 9.98861 19.9772 11.6684 21.6328C12.0857 22.0441 12.5003 22.4443 12.9062 22.8298V25.5517V28.2562ZM17.6435 25.8231C17.6435 25.8231 17.6435 25.8231 17.6435 25.8231C18.4432 25.1338 19.4262 24.2663 20.4863 23.2858C20.8282 22.9696 21.1761 22.6434 21.527 22.3093C20.0873 23.6803 18.7202 24.8945 17.6646 25.8049C17.6575 25.811 17.6505 25.817 17.6435 25.8231ZM24.1009 19.7497C25.1143 18.6922 26.085 17.6091 26.9323 16.5517H26.932C26.084 17.6098 25.1136 18.6927 24.1009 19.7497Z" fill="#FF787D"/>
<path d="M2.4066 12.5517C1.3331 8.56811 2.36981 5.30002 5.70084 3.60616C7.71559 2.58163 10.3181 2.76216 12.1827 4.05168C15 6 17 9.49997 17 9.49997C17 9.49997 19.9807 5.13052 21.9062 4.05168C23.8841 2.94355 26.3734 2.58164 28.3881 3.60616" stroke="#FF787D" stroke-width="4" stroke-linecap="round" stroke-linejoin="round"/>
<path d="M33.0103 14.5716V28.5716H28.9062V20.1756L25.1383 24.4634L22.6982 24.4633L18.9062 20.1556V28.5716H14.8022V14.5716H19.6502L23.97 20.1357L28.1862 14.5716H33.0103Z" fill="#FF787D"/>
</svg>
