<svg width="320" height="181" viewBox="0 0 320 181" fill="none" xmlns="http://www.w3.org/2000/svg">
<rect width="320" height="180.5" rx="12" fill="#FFF9C2"/>
<path d="M12 118.75H308M12 88.8777H308M12 59.5032H308M12 30.6266H308" stroke="#FFE5A6"/>
<path d="M20.0913 132.5V131.21H22.5013V138.5H21.0613V132.5H20.0913Z" fill="black"/>
<path d="M73.7163 136.92C74.3563 136.387 74.8663 135.943 75.2463 135.59C75.6263 135.23 75.943 134.857 76.1963 134.47C76.4497 134.083 76.5763 133.703 76.5763 133.33C76.5763 132.99 76.4963 132.723 76.3363 132.53C76.1763 132.337 75.9297 132.24 75.5963 132.24C75.263 132.24 75.0063 132.353 74.8263 132.58C74.6463 132.8 74.553 133.103 74.5463 133.49H73.1863C73.213 132.69 73.4497 132.083 73.8963 131.67C74.3497 131.257 74.923 131.05 75.6163 131.05C76.3763 131.05 76.9597 131.253 77.3663 131.66C77.773 132.06 77.9763 132.59 77.9763 133.25C77.9763 133.77 77.8363 134.267 77.5563 134.74C77.2763 135.213 76.9563 135.627 76.5963 135.98C76.2363 136.327 75.7663 136.747 75.1863 137.24H78.1363V138.4H73.1963V137.36L73.7163 136.92Z" fill="black"/>
<path d="M128.52 133.13C128.553 132.463 128.787 131.95 129.22 131.59C129.66 131.223 130.237 131.04 130.95 131.04C131.437 131.04 131.853 131.127 132.2 131.3C132.547 131.467 132.807 131.697 132.98 131.99C133.16 132.277 133.25 132.603 133.25 132.97C133.25 133.39 133.14 133.747 132.92 134.04C132.707 134.327 132.45 134.52 132.15 134.62V134.66C132.537 134.78 132.837 134.993 133.05 135.3C133.27 135.607 133.38 136 133.38 136.48C133.38 136.88 133.287 137.237 133.1 137.55C132.92 137.863 132.65 138.11 132.29 138.29C131.937 138.463 131.51 138.55 131.01 138.55C130.257 138.55 129.643 138.36 129.17 137.98C128.697 137.6 128.447 137.04 128.42 136.3H129.78C129.793 136.627 129.903 136.89 130.11 137.09C130.323 137.283 130.613 137.38 130.98 137.38C131.32 137.38 131.58 137.287 131.76 137.1C131.947 136.907 132.04 136.66 132.04 136.36C132.04 135.96 131.913 135.673 131.66 135.5C131.407 135.327 131.013 135.24 130.48 135.24H130.19V134.09H130.48C131.427 134.09 131.9 133.773 131.9 133.14C131.9 132.853 131.813 132.63 131.64 132.47C131.473 132.31 131.23 132.23 130.91 132.23C130.597 132.23 130.353 132.317 130.18 132.49C130.013 132.657 129.917 132.87 129.89 133.13H128.52Z" fill="black"/>
<path d="M184.768 137.08V135.98L188.038 131.3H189.668V135.86H190.548V137.08H189.668V138.5H188.268V137.08H184.768ZM188.358 132.8L186.308 135.86H188.358V132.8Z" fill="black"/>
<path d="M246.057 132.42H242.817V134.13C242.957 133.957 243.157 133.817 243.417 133.71C243.677 133.597 243.954 133.54 244.247 133.54C244.78 133.54 245.217 133.657 245.557 133.89C245.897 134.123 246.144 134.423 246.297 134.79C246.45 135.15 246.527 135.537 246.527 135.95C246.527 136.717 246.307 137.333 245.867 137.8C245.434 138.267 244.814 138.5 244.007 138.5C243.247 138.5 242.64 138.31 242.187 137.93C241.734 137.55 241.477 137.053 241.417 136.44H242.777C242.837 136.707 242.97 136.92 243.177 137.08C243.39 137.24 243.66 137.32 243.987 137.32C244.38 137.32 244.677 137.197 244.877 136.95C245.077 136.703 245.177 136.377 245.177 135.97C245.177 135.557 245.074 135.243 244.867 135.03C244.667 134.81 244.37 134.7 243.977 134.7C243.697 134.7 243.464 134.77 243.277 134.91C243.09 135.05 242.957 135.237 242.877 135.47H241.537V131.19H246.057V132.42Z" fill="black"/>
<path d="M301.265 133.03C301.199 132.75 301.082 132.54 300.915 132.4C300.755 132.26 300.522 132.19 300.215 132.19C299.755 132.19 299.415 132.377 299.195 132.75C298.982 133.117 298.872 133.717 298.865 134.55C299.025 134.283 299.259 134.077 299.565 133.93C299.872 133.777 300.205 133.7 300.565 133.7C300.999 133.7 301.382 133.793 301.715 133.98C302.049 134.167 302.309 134.44 302.495 134.8C302.682 135.153 302.775 135.58 302.775 136.08C302.775 136.553 302.679 136.977 302.485 137.35C302.299 137.717 302.022 138.003 301.655 138.21C301.289 138.417 300.852 138.52 300.345 138.52C299.652 138.52 299.105 138.367 298.705 138.06C298.312 137.753 298.035 137.327 297.875 136.78C297.722 136.227 297.645 135.547 297.645 134.74C297.645 133.52 297.855 132.6 298.275 131.98C298.695 131.353 299.359 131.04 300.265 131.04C300.965 131.04 301.509 131.23 301.895 131.61C302.282 131.99 302.505 132.463 302.565 133.03H301.265ZM300.245 134.85C299.892 134.85 299.595 134.953 299.355 135.16C299.115 135.367 298.995 135.667 298.995 136.06C298.995 136.453 299.105 136.763 299.325 136.99C299.552 137.217 299.869 137.33 300.275 137.33C300.635 137.33 300.919 137.22 301.125 137C301.339 136.78 301.445 136.483 301.445 136.11C301.445 135.723 301.342 135.417 301.135 135.19C300.935 134.963 300.639 134.85 300.245 134.85Z" fill="black"/>
<path d="M77.7164 72.5C55.7306 78.3484 21.9403 89 21.9403 89V119.5H303.582V20H246.149C224.06 19.9999 209.539 21.1494 187.612 29.9999C164.742 39.2311 155.584 50.9607 132.388 59.5C111.939 67.028 98.8959 66.866 77.7164 72.5Z" fill="url(#paint0_linear_857_5914)" fill-opacity="0.8"/>
<path d="M21.9403 89C21.9403 89 55.7306 78.3485 77.7164 72.5C98.8959 66.866 111.939 67.028 132.388 59.5C155.584 50.9607 164.742 39.2311 187.612 29.9999C209.539 21.1494 224.06 19.9999 246.149 20C268.239 20.0001 304.134 20 304.134 20" stroke="#78C142" stroke-width="2"/>
<path d="M77.7164 89C54.8013 89 21.9403 103.5 21.9403 103.5V119.5H303.582V30C303.582 30 268.239 44.0001 246.149 44C220.295 43.9999 211.795 51.2194 187.612 59.5C166.769 66.6369 154.671 72.5 132.388 72.5C110.851 72.5 99.2538 89 77.7164 89Z" fill="url(#paint1_linear_857_5914)" fill-opacity="0.8"/>
<path d="M21.9403 103.5C21.9403 103.5 54.8013 89 77.7164 89C99.2538 89 110.851 72.5 132.388 72.5C154.671 72.5 166.769 66.6369 187.612 59.5C211.795 51.2194 220.295 43.9999 246.149 44C268.239 44.0001 303.582 30 303.582 30" stroke="#FF787D" stroke-width="2"/>
<rect x="12" y="150" width="9" height="9" rx="3" fill="#FF787D"/>
<path d="M29.048 150.424V151.016H27.528V156H26.8V151.016H25.272V150.424H29.048ZM34.7441 153.64C34.7441 153.779 34.7361 153.925 34.7201 154.08H31.2161C31.2428 154.512 31.3895 154.851 31.6561 155.096C31.9281 155.336 32.2561 155.456 32.6401 155.456C32.9548 155.456 33.2161 155.384 33.4241 155.24C33.6375 155.091 33.7868 154.893 33.8721 154.648H34.6561C34.5388 155.069 34.3041 155.413 33.9521 155.68C33.6001 155.941 33.1628 156.072 32.6401 156.072C32.2241 156.072 31.8508 155.979 31.5201 155.792C31.1948 155.605 30.9388 155.341 30.7521 155C30.5655 154.653 30.4721 154.253 30.4721 153.8C30.4721 153.347 30.5628 152.949 30.7441 152.608C30.9255 152.267 31.1788 152.005 31.5041 151.824C31.8348 151.637 32.2135 151.544 32.6401 151.544C33.0561 151.544 33.4241 151.635 33.7441 151.816C34.0641 151.997 34.3095 152.248 34.4801 152.568C34.6561 152.883 34.7441 153.24 34.7441 153.64ZM33.9921 153.488C33.9921 153.211 33.9308 152.973 33.8081 152.776C33.6855 152.573 33.5175 152.421 33.3041 152.32C33.0961 152.213 32.8641 152.16 32.6081 152.16C32.2401 152.16 31.9255 152.277 31.6641 152.512C31.4081 152.747 31.2615 153.072 31.2241 153.488H33.9921ZM38.9531 156L37.2331 154.064V156H36.5051V150.08H37.2331V153.56L38.9211 151.616H39.9371L37.8731 153.8L39.9451 156H38.9531ZM41.1502 153.792C41.1502 153.344 41.2409 152.952 41.4222 152.616C41.6036 152.275 41.8516 152.011 42.1662 151.824C42.4862 151.637 42.8409 151.544 43.2302 151.544C43.6142 151.544 43.9476 151.627 44.2302 151.792C44.5129 151.957 44.7236 152.165 44.8622 152.416V151.616H45.5982V156H44.8622V155.184C44.7182 155.44 44.5022 155.653 44.2142 155.824C43.9316 155.989 43.6009 156.072 43.2222 156.072C42.8329 156.072 42.4809 155.976 42.1662 155.784C41.8516 155.592 41.6036 155.323 41.4222 154.976C41.2409 154.629 41.1502 154.235 41.1502 153.792ZM44.8622 153.8C44.8622 153.469 44.7956 153.181 44.6622 152.936C44.5289 152.691 44.3476 152.504 44.1182 152.376C43.8942 152.243 43.6462 152.176 43.3742 152.176C43.1022 152.176 42.8542 152.24 42.6302 152.368C42.4062 152.496 42.2276 152.683 42.0942 152.928C41.9609 153.173 41.8942 153.461 41.8942 153.792C41.8942 154.128 41.9609 154.421 42.0942 154.672C42.2276 154.917 42.4062 155.107 42.6302 155.24C42.8542 155.368 43.1022 155.432 43.3742 155.432C43.6462 155.432 43.8942 155.368 44.1182 155.24C44.3476 155.107 44.5289 154.917 44.6622 154.672C44.7956 154.421 44.8622 154.131 44.8622 153.8ZM49.7645 151.536C50.2978 151.536 50.7298 151.699 51.0605 152.024C51.3912 152.344 51.5565 152.808 51.5565 153.416V156H50.8365V153.52C50.8365 153.083 50.7272 152.749 50.5085 152.52C50.2898 152.285 49.9912 152.168 49.6125 152.168C49.2285 152.168 48.9218 152.288 48.6925 152.528C48.4685 152.768 48.3565 153.117 48.3565 153.576V156H47.6285V151.616H48.3565V152.24C48.5005 152.016 48.6952 151.843 48.9405 151.72C49.1912 151.597 49.4658 151.536 49.7645 151.536ZM53.2737 153.792C53.2737 153.344 53.3644 152.952 53.5457 152.616C53.727 152.275 53.975 152.011 54.2897 151.824C54.6097 151.637 54.9644 151.544 55.3537 151.544C55.7377 151.544 56.071 151.627 56.3537 151.792C56.6364 151.957 56.847 152.165 56.9857 152.416V151.616H57.7217V156H56.9857V155.184C56.8417 155.44 56.6257 155.653 56.3377 155.824C56.055 155.989 55.7244 156.072 55.3457 156.072C54.9564 156.072 54.6044 155.976 54.2897 155.784C53.975 155.592 53.727 155.323 53.5457 154.976C53.3644 154.629 53.2737 154.235 53.2737 153.792ZM56.9857 153.8C56.9857 153.469 56.919 153.181 56.7857 152.936C56.6524 152.691 56.471 152.504 56.2417 152.376C56.0177 152.243 55.7697 152.176 55.4977 152.176C55.2257 152.176 54.9777 152.24 54.7537 152.368C54.5297 152.496 54.351 152.683 54.2177 152.928C54.0844 153.173 54.0177 153.461 54.0177 153.792C54.0177 154.128 54.0844 154.421 54.2177 154.672C54.351 154.917 54.5297 155.107 54.7537 155.24C54.9777 155.368 55.2257 155.432 55.4977 155.432C55.7697 155.432 56.0177 155.368 56.2417 155.24C56.471 155.107 56.6524 154.917 56.7857 154.672C56.919 154.421 56.9857 154.131 56.9857 153.8ZM61.8879 151.536C62.4213 151.536 62.8533 151.699 63.1839 152.024C63.5146 152.344 63.6799 152.808 63.6799 153.416V156H62.9599V153.52C62.9599 153.083 62.8506 152.749 62.6319 152.52C62.4133 152.285 62.1146 152.168 61.7359 152.168C61.3519 152.168 61.0453 152.288 60.8159 152.528C60.5919 152.768 60.4799 153.117 60.4799 153.576V156H59.7519V151.616H60.4799V152.24C60.6239 152.016 60.8186 151.843 61.0639 151.72C61.3146 151.597 61.5893 151.536 61.8879 151.536ZM70.3379 150.424C70.9459 150.424 71.4713 150.539 71.9139 150.768C72.3619 150.992 72.7033 151.315 72.9379 151.736C73.1779 152.157 73.2979 152.653 73.2979 153.224C73.2979 153.795 73.1779 154.291 72.9379 154.712C72.7033 155.128 72.3619 155.448 71.9139 155.672C71.4713 155.891 70.9459 156 70.3379 156H68.6019V150.424H70.3379ZM70.3379 155.4C71.0579 155.4 71.6073 155.211 71.9859 154.832C72.3646 154.448 72.5539 153.912 72.5539 153.224C72.5539 152.531 72.3619 151.989 71.9779 151.6C71.5993 151.211 71.0526 151.016 70.3379 151.016H69.3299V155.4H70.3379ZM74.7862 153.792C74.7862 153.344 74.8769 152.952 75.0582 152.616C75.2395 152.275 75.4875 152.011 75.8022 151.824C76.1222 151.637 76.4769 151.544 76.8662 151.544C77.2502 151.544 77.5835 151.627 77.8662 151.792C78.1489 151.957 78.3595 152.165 78.4982 152.416V151.616H79.2342V156H78.4982V155.184C78.3542 155.44 78.1382 155.653 77.8502 155.824C77.5675 155.989 77.2369 156.072 76.8582 156.072C76.4689 156.072 76.1169 155.976 75.8022 155.784C75.4875 155.592 75.2395 155.323 75.0582 154.976C74.8769 154.629 74.7862 154.235 74.7862 153.792ZM78.4982 153.8C78.4982 153.469 78.4315 153.181 78.2982 152.936C78.1649 152.691 77.9835 152.504 77.7542 152.376C77.5302 152.243 77.2822 152.176 77.0102 152.176C76.7382 152.176 76.4902 152.24 76.2662 152.368C76.0422 152.496 75.8635 152.683 75.7302 152.928C75.5969 153.173 75.5302 153.461 75.5302 153.792C75.5302 154.128 75.5969 154.421 75.7302 154.672C75.8635 154.917 76.0422 155.107 76.2662 155.24C76.4902 155.368 76.7382 155.432 77.0102 155.432C77.2822 155.432 77.5302 155.368 77.7542 155.24C77.9835 155.107 78.1649 154.917 78.2982 154.672C78.4315 154.421 78.4982 154.131 78.4982 153.8ZM81.9924 152.328C82.1204 152.077 82.3018 151.883 82.5364 151.744C82.7764 151.605 83.0671 151.536 83.4084 151.536V152.288H83.2164C82.4004 152.288 81.9924 152.731 81.9924 153.616V156H81.2644V151.616H81.9924V152.328ZM84.7768 153.792C84.7768 153.344 84.8675 152.952 85.0488 152.616C85.2301 152.275 85.4781 152.011 85.7928 151.824C86.1128 151.637 86.4675 151.544 86.8568 151.544C87.2408 151.544 87.5741 151.627 87.8568 151.792C88.1395 151.957 88.3501 152.165 88.4888 152.416V151.616H89.2248V156H88.4888V155.184C88.3448 155.44 88.1288 155.653 87.8408 155.824C87.5581 155.989 87.2275 156.072 86.8488 156.072C86.4595 156.072 86.1075 155.976 85.7928 155.784C85.4781 155.592 85.2301 155.323 85.0488 154.976C84.8675 154.629 84.7768 154.235 84.7768 153.792ZM88.4888 153.8C88.4888 153.469 88.4221 153.181 88.2888 152.936C88.1555 152.691 87.9741 152.504 87.7448 152.376C87.5208 152.243 87.2728 152.176 87.0008 152.176C86.7288 152.176 86.4808 152.24 86.2568 152.368C86.0328 152.496 85.8541 152.683 85.7208 152.928C85.5875 153.173 85.5208 153.461 85.5208 153.792C85.5208 154.128 85.5875 154.421 85.7208 154.672C85.8541 154.917 86.0328 155.107 86.2568 155.24C86.4808 155.368 86.7288 155.432 87.0008 155.432C87.2728 155.432 87.5208 155.368 87.7448 155.24C87.9741 155.107 88.1555 154.917 88.2888 154.672C88.4221 154.421 88.4888 154.131 88.4888 153.8ZM93.4311 151.536C93.7617 151.536 94.0604 151.608 94.3271 151.752C94.5937 151.891 94.8017 152.101 94.9511 152.384C95.1057 152.667 95.1831 153.011 95.1831 153.416V156H94.4631V153.52C94.4631 153.083 94.3537 152.749 94.1351 152.52C93.9164 152.285 93.6177 152.168 93.2391 152.168C92.8551 152.168 92.5484 152.288 92.3191 152.528C92.0951 152.768 91.9831 153.117 91.9831 153.576V156H91.2551V150.08H91.9831V152.24C92.1271 152.016 92.3244 151.843 92.5751 151.72C92.8311 151.597 93.1164 151.536 93.4311 151.536Z" fill="black"/>
<rect x="12" y="159.5" width="9" height="9" rx="3" fill="#78C142"/>
<path d="M28.408 164.128C28.6107 164.16 28.7947 164.243 28.96 164.376C29.1307 164.509 29.264 164.675 29.36 164.872C29.4613 165.069 29.512 165.28 29.512 165.504C29.512 165.787 29.44 166.043 29.296 166.272C29.152 166.496 28.9413 166.675 28.664 166.808C28.392 166.936 28.0693 167 27.696 167H25.616V161.424H27.616C27.9947 161.424 28.3173 161.488 28.584 161.616C28.8507 161.739 29.0507 161.907 29.184 162.12C29.3173 162.333 29.384 162.573 29.384 162.84C29.384 163.171 29.2933 163.445 29.112 163.664C28.936 163.877 28.7013 164.032 28.408 164.128ZM26.344 163.832H27.568C27.9093 163.832 28.1733 163.752 28.36 163.592C28.5467 163.432 28.64 163.211 28.64 162.928C28.64 162.645 28.5467 162.424 28.36 162.264C28.1733 162.104 27.904 162.024 27.552 162.024H26.344V163.832ZM27.632 166.4C27.9947 166.4 28.2773 166.315 28.48 166.144C28.6827 165.973 28.784 165.736 28.784 165.432C28.784 165.123 28.6773 164.88 28.464 164.704C28.2507 164.523 27.9653 164.432 27.608 164.432H26.344V166.4H27.632ZM35.3223 164.64C35.3223 164.779 35.3143 164.925 35.2983 165.08H31.7943C31.8209 165.512 31.9676 165.851 32.2343 166.096C32.5063 166.336 32.8343 166.456 33.2183 166.456C33.5329 166.456 33.7943 166.384 34.0023 166.24C34.2156 166.091 34.3649 165.893 34.4503 165.648H35.2343C35.1169 166.069 34.8823 166.413 34.5303 166.68C34.1783 166.941 33.7409 167.072 33.2183 167.072C32.8023 167.072 32.4289 166.979 32.0983 166.792C31.7729 166.605 31.5169 166.341 31.3303 166C31.1436 165.653 31.0503 165.253 31.0503 164.8C31.0503 164.347 31.1409 163.949 31.3223 163.608C31.5036 163.267 31.7569 163.005 32.0823 162.824C32.4129 162.637 32.7916 162.544 33.2183 162.544C33.6343 162.544 34.0023 162.635 34.3223 162.816C34.6423 162.997 34.8876 163.248 35.0583 163.568C35.2343 163.883 35.3223 164.24 35.3223 164.64ZM34.5703 164.488C34.5703 164.211 34.5089 163.973 34.3863 163.776C34.2636 163.573 34.0956 163.421 33.8823 163.32C33.6743 163.213 33.4423 163.16 33.1863 163.16C32.8183 163.16 32.5036 163.277 32.2423 163.512C31.9863 163.747 31.8396 164.072 31.8023 164.488H34.5703ZM37.8112 163.328C37.9392 163.077 38.1205 162.883 38.3552 162.744C38.5952 162.605 38.8859 162.536 39.2272 162.536V163.288H39.0352C38.2192 163.288 37.8112 163.731 37.8112 164.616V167H37.0832V162.616H37.8112V163.328ZM40.5956 164.792C40.5956 164.344 40.6862 163.952 40.8676 163.616C41.0489 163.275 41.2969 163.011 41.6116 162.824C41.9316 162.637 42.2862 162.544 42.6756 162.544C43.0596 162.544 43.3929 162.627 43.6756 162.792C43.9582 162.957 44.1689 163.165 44.3076 163.416V162.616H45.0436V167H44.3076V166.184C44.1636 166.44 43.9476 166.653 43.6596 166.824C43.3769 166.989 43.0462 167.072 42.6676 167.072C42.2782 167.072 41.9262 166.976 41.6116 166.784C41.2969 166.592 41.0489 166.323 40.8676 165.976C40.6862 165.629 40.5956 165.235 40.5956 164.792ZM44.3076 164.8C44.3076 164.469 44.2409 164.181 44.1076 163.936C43.9742 163.691 43.7929 163.504 43.5636 163.376C43.3396 163.243 43.0916 163.176 42.8196 163.176C42.5476 163.176 42.2996 163.24 42.0756 163.368C41.8516 163.496 41.6729 163.683 41.5396 163.928C41.4062 164.173 41.3396 164.461 41.3396 164.792C41.3396 165.128 41.4062 165.421 41.5396 165.672C41.6729 165.917 41.8516 166.107 42.0756 166.24C42.2996 166.368 42.5476 166.432 42.8196 166.432C43.0916 166.432 43.3396 166.368 43.5636 166.24C43.7929 166.107 43.9742 165.917 44.1076 165.672C44.2409 165.421 44.3076 165.131 44.3076 164.8ZM47.9618 163.216V165.8C47.9618 166.013 48.0071 166.165 48.0978 166.256C48.1885 166.341 48.3458 166.384 48.5698 166.384H49.1058V167H48.4498C48.0445 167 47.7405 166.907 47.5378 166.72C47.3351 166.533 47.2338 166.227 47.2338 165.8V163.216H46.6658V162.616H47.2338V161.512H47.9618V162.616H49.1058V163.216H47.9618ZM56.5127 164.128C56.7154 164.16 56.8994 164.243 57.0647 164.376C57.2354 164.509 57.3687 164.675 57.4647 164.872C57.566 165.069 57.6167 165.28 57.6167 165.504C57.6167 165.787 57.5447 166.043 57.4007 166.272C57.2567 166.496 57.046 166.675 56.7687 166.808C56.4967 166.936 56.174 167 55.8007 167H53.7207V161.424H55.7207C56.0994 161.424 56.422 161.488 56.6887 161.616C56.9554 161.739 57.1554 161.907 57.2887 162.12C57.422 162.333 57.4887 162.573 57.4887 162.84C57.4887 163.171 57.398 163.445 57.2167 163.664C57.0407 163.877 56.806 164.032 56.5127 164.128ZM54.4487 163.832H55.6727C56.014 163.832 56.278 163.752 56.4647 163.592C56.6514 163.432 56.7447 163.211 56.7447 162.928C56.7447 162.645 56.6514 162.424 56.4647 162.264C56.278 162.104 56.0087 162.024 55.6567 162.024H54.4487V163.832ZM55.7367 166.4C56.0994 166.4 56.382 166.315 56.5847 166.144C56.7874 165.973 56.8887 165.736 56.8887 165.432C56.8887 165.123 56.782 164.88 56.5687 164.704C56.3554 164.523 56.07 164.432 55.7127 164.432H54.4487V166.4H55.7367ZM59.1549 164.792C59.1549 164.344 59.2456 163.952 59.4269 163.616C59.6083 163.275 59.8563 163.011 60.1709 162.824C60.4909 162.637 60.8456 162.544 61.2349 162.544C61.6189 162.544 61.9523 162.627 62.2349 162.792C62.5176 162.957 62.7283 163.165 62.8669 163.416V162.616H63.6029V167H62.8669V166.184C62.7229 166.44 62.5069 166.653 62.2189 166.824C61.9363 166.989 61.6056 167.072 61.2269 167.072C60.8376 167.072 60.4856 166.976 60.1709 166.784C59.8563 166.592 59.6083 166.323 59.4269 165.976C59.2456 165.629 59.1549 165.235 59.1549 164.792ZM62.8669 164.8C62.8669 164.469 62.8003 164.181 62.6669 163.936C62.5336 163.691 62.3523 163.504 62.1229 163.376C61.8989 163.243 61.6509 163.176 61.3789 163.176C61.1069 163.176 60.8589 163.24 60.6349 163.368C60.4109 163.496 60.2323 163.683 60.0989 163.928C59.9656 164.173 59.8989 164.461 59.8989 164.792C59.8989 165.128 59.9656 165.421 60.0989 165.672C60.2323 165.917 60.4109 166.107 60.6349 166.24C60.8589 166.368 61.1069 166.432 61.3789 166.432C61.6509 166.432 61.8989 166.368 62.1229 166.24C62.3523 166.107 62.5336 165.917 62.6669 165.672C62.8003 165.421 62.8669 165.131 62.8669 164.8ZM65.3612 164.792C65.3612 164.344 65.4519 163.952 65.6332 163.616C65.8145 163.275 66.0625 163.011 66.3772 162.824C66.6972 162.637 67.0545 162.544 67.4492 162.544C67.7905 162.544 68.1079 162.624 68.4012 162.784C68.6945 162.939 68.9185 163.144 69.0732 163.4V161.08H69.8092V167H69.0732V166.176C68.9292 166.437 68.7159 166.653 68.4332 166.824C68.1505 166.989 67.8199 167.072 67.4412 167.072C67.0519 167.072 66.6972 166.976 66.3772 166.784C66.0625 166.592 65.8145 166.323 65.6332 165.976C65.4519 165.629 65.3612 165.235 65.3612 164.792ZM69.0732 164.8C69.0732 164.469 69.0065 164.181 68.8732 163.936C68.7399 163.691 68.5585 163.504 68.3292 163.376C68.1052 163.243 67.8572 163.176 67.5852 163.176C67.3132 163.176 67.0652 163.24 66.8412 163.368C66.6172 163.496 66.4385 163.683 66.3052 163.928C66.1719 164.173 66.1052 164.461 66.1052 164.792C66.1052 165.128 66.1719 165.421 66.3052 165.672C66.4385 165.917 66.6172 166.107 66.8412 166.24C67.0652 166.368 67.3132 166.432 67.5852 166.432C67.8572 166.432 68.1052 166.368 68.3292 166.24C68.5585 166.107 68.7399 165.917 68.8732 165.672C69.0065 165.421 69.0732 165.131 69.0732 164.8ZM71.5674 164.792C71.5674 164.344 71.6581 163.952 71.8394 163.616C72.0208 163.275 72.2688 163.011 72.5834 162.824C72.9034 162.637 73.2581 162.544 73.6474 162.544C74.0314 162.544 74.3648 162.627 74.6474 162.792C74.9301 162.957 75.1408 163.165 75.2794 163.416V162.616H76.0154V167H75.2794V166.184C75.1354 166.44 74.9194 166.653 74.6314 166.824C74.3488 166.989 74.0181 167.072 73.6394 167.072C73.2501 167.072 72.8981 166.976 72.5834 166.784C72.2688 166.592 72.0208 166.323 71.8394 165.976C71.6581 165.629 71.5674 165.235 71.5674 164.792ZM75.2794 164.8C75.2794 164.469 75.2128 164.181 75.0794 163.936C74.9461 163.691 74.7648 163.504 74.5354 163.376C74.3114 163.243 74.0634 163.176 73.7914 163.176C73.5194 163.176 73.2714 163.24 73.0474 163.368C72.8234 163.496 72.6448 163.683 72.5114 163.928C72.3781 164.173 72.3114 164.461 72.3114 164.792C72.3114 165.128 72.3781 165.421 72.5114 165.672C72.6448 165.917 72.8234 166.107 73.0474 166.24C73.2714 166.368 73.5194 166.432 73.7914 166.432C74.0634 166.432 74.3114 166.368 74.5354 166.24C74.7648 166.107 74.9461 165.917 75.0794 165.672C75.2128 165.421 75.2794 165.131 75.2794 164.8ZM80.1817 162.536C80.715 162.536 81.147 162.699 81.4777 163.024C81.8084 163.344 81.9737 163.808 81.9737 164.416V167H81.2537V164.52C81.2537 164.083 81.1444 163.749 80.9257 163.52C80.707 163.285 80.4084 163.168 80.0297 163.168C79.6457 163.168 79.339 163.288 79.1097 163.528C78.8857 163.768 78.7737 164.117 78.7737 164.576V167H78.0457V162.616H78.7737V163.24C78.9177 163.016 79.1124 162.843 79.3577 162.72C79.6084 162.597 79.883 162.536 80.1817 162.536Z" fill="black"/>
<path d="M134.684 151.16V159.5H133.316V153.788L130.772 159.5H129.824L127.268 153.788V159.5H125.9V151.16H127.376L130.304 157.7L133.22 151.16H134.684ZM137.178 152.012C136.93 152.012 136.722 151.928 136.554 151.76C136.386 151.592 136.302 151.384 136.302 151.136C136.302 150.888 136.386 150.68 136.554 150.512C136.722 150.344 136.93 150.26 137.178 150.26C137.418 150.26 137.622 150.344 137.79 150.512C137.958 150.68 138.042 150.888 138.042 151.136C138.042 151.384 137.958 151.592 137.79 151.76C137.622 151.928 137.418 152.012 137.178 152.012ZM137.85 152.888V159.5H136.482V152.888H137.85ZM142.982 152.78C143.502 152.78 143.966 152.888 144.374 153.104C144.79 153.32 145.114 153.64 145.346 154.064C145.578 154.488 145.694 155 145.694 155.6V159.5H144.338V155.804C144.338 155.212 144.19 154.76 143.894 154.448C143.598 154.128 143.194 153.968 142.682 153.968C142.17 153.968 141.762 154.128 141.458 154.448C141.162 154.76 141.014 155.212 141.014 155.804V159.5H139.646V152.888H141.014V153.644C141.238 153.372 141.522 153.16 141.866 153.008C142.218 152.856 142.59 152.78 142.982 152.78ZM150.103 152.78C150.615 152.78 151.067 152.884 151.459 153.092C151.859 153.292 152.171 153.544 152.395 153.848V152.888H153.775V159.608C153.775 160.216 153.647 160.756 153.391 161.228C153.135 161.708 152.763 162.084 152.275 162.356C151.795 162.628 151.219 162.764 150.547 162.764C149.651 162.764 148.907 162.552 148.315 162.128C147.723 161.712 147.387 161.144 147.307 160.424H148.663C148.767 160.768 148.987 161.044 149.323 161.252C149.667 161.468 150.075 161.576 150.547 161.576C151.099 161.576 151.543 161.408 151.879 161.072C152.223 160.736 152.395 160.248 152.395 159.608V158.504C152.163 158.816 151.847 159.08 151.447 159.296C151.055 159.504 150.607 159.608 150.103 159.608C149.527 159.608 148.999 159.464 148.519 159.176C148.047 158.88 147.671 158.472 147.391 157.952C147.119 157.424 146.983 156.828 146.983 156.164C146.983 155.5 147.119 154.912 147.391 154.4C147.671 153.888 148.047 153.492 148.519 153.212C148.999 152.924 149.527 152.78 150.103 152.78ZM152.395 156.188C152.395 155.732 152.299 155.336 152.107 155C151.923 154.664 151.679 154.408 151.375 154.232C151.071 154.056 150.743 153.968 150.391 153.968C150.039 153.968 149.711 154.056 149.407 154.232C149.103 154.4 148.855 154.652 148.663 154.988C148.479 155.316 148.387 155.708 148.387 156.164C148.387 156.62 148.479 157.02 148.663 157.364C148.855 157.708 149.103 157.972 149.407 158.156C149.719 158.332 150.047 158.42 150.391 158.42C150.743 158.42 151.071 158.332 151.375 158.156C151.679 157.98 151.923 157.724 152.107 157.388C152.299 157.044 152.395 156.644 152.395 156.188ZM158.236 152.78C158.748 152.78 159.2 152.884 159.592 153.092C159.992 153.292 160.304 153.544 160.528 153.848V152.888H161.908V159.608C161.908 160.216 161.78 160.756 161.524 161.228C161.268 161.708 160.896 162.084 160.408 162.356C159.928 162.628 159.352 162.764 158.68 162.764C157.784 162.764 157.04 162.552 156.448 162.128C155.856 161.712 155.52 161.144 155.44 160.424H156.796C156.9 160.768 157.12 161.044 157.456 161.252C157.8 161.468 158.208 161.576 158.68 161.576C159.232 161.576 159.676 161.408 160.012 161.072C160.356 160.736 160.528 160.248 160.528 159.608V158.504C160.296 158.816 159.98 159.08 159.58 159.296C159.188 159.504 158.74 159.608 158.236 159.608C157.66 159.608 157.132 159.464 156.652 159.176C156.18 158.88 155.804 158.472 155.524 157.952C155.252 157.424 155.116 156.828 155.116 156.164C155.116 155.5 155.252 154.912 155.524 154.4C155.804 153.888 156.18 153.492 156.652 153.212C157.132 152.924 157.66 152.78 158.236 152.78ZM160.528 156.188C160.528 155.732 160.432 155.336 160.24 155C160.056 154.664 159.812 154.408 159.508 154.232C159.204 154.056 158.876 153.968 158.524 153.968C158.172 153.968 157.844 154.056 157.54 154.232C157.236 154.4 156.988 154.652 156.796 154.988C156.612 155.316 156.52 155.708 156.52 156.164C156.52 156.62 156.612 157.02 156.796 157.364C156.988 157.708 157.236 157.972 157.54 158.156C157.852 158.332 158.18 158.42 158.524 158.42C158.876 158.42 159.204 158.332 159.508 158.156C159.812 157.98 160.056 157.724 160.24 157.388C160.432 157.044 160.528 156.644 160.528 156.188ZM169.693 152.888V159.5H168.325V158.72C168.109 158.992 167.825 159.208 167.473 159.368C167.129 159.52 166.761 159.596 166.369 159.596C165.849 159.596 165.381 159.488 164.965 159.272C164.557 159.056 164.233 158.736 163.993 158.312C163.761 157.888 163.645 157.376 163.645 156.776V152.888H165.001V156.572C165.001 157.164 165.149 157.62 165.445 157.94C165.741 158.252 166.145 158.408 166.657 158.408C167.169 158.408 167.573 158.252 167.869 157.94C168.173 157.62 168.325 157.164 168.325 156.572V152.888H169.693ZM177.231 156.2L180.279 159.5H178.431L175.983 156.656V159.5H174.615V150.62H175.983V155.78L178.383 152.888H180.279L177.231 156.2ZM187.319 156.032C187.319 156.28 187.303 156.504 187.271 156.704H182.219C182.259 157.232 182.455 157.656 182.807 157.976C183.159 158.296 183.591 158.456 184.103 158.456C184.839 158.456 185.359 158.148 185.663 157.532H187.139C186.939 158.14 186.575 158.64 186.047 159.032C185.527 159.416 184.879 159.608 184.103 159.608C183.471 159.608 182.903 159.468 182.399 159.188C181.903 158.9 181.511 158.5 181.223 157.988C180.943 157.468 180.803 156.868 180.803 156.188C180.803 155.508 180.939 154.912 181.211 154.4C181.491 153.88 181.879 153.48 182.375 153.2C182.879 152.92 183.455 152.78 184.103 152.78C184.727 152.78 185.283 152.916 185.771 153.188C186.259 153.46 186.639 153.844 186.911 154.34C187.183 154.828 187.319 155.392 187.319 156.032ZM185.891 155.6C185.883 155.096 185.703 154.692 185.351 154.388C184.999 154.084 184.563 153.932 184.043 153.932C183.571 153.932 183.167 154.084 182.831 154.388C182.495 154.684 182.295 155.088 182.231 155.6H185.891ZM193.742 154.58V155.732H188.81V154.58H193.742Z" fill="black"/>
<defs>
<linearGradient id="paint0_linear_857_5914" x1="162.761" y1="31.5" x2="162.761" y2="119.5" gradientUnits="userSpaceOnUse">
<stop stop-color="#78C142" stop-opacity="0.8"/>
<stop offset="1" stop-color="#78C142" stop-opacity="0"/>
</linearGradient>
<linearGradient id="paint1_linear_857_5914" x1="162.761" y1="31.5" x2="162.761" y2="119.5" gradientUnits="userSpaceOnUse">
<stop stop-color="#FA646A" stop-opacity="0.8"/>
<stop offset="1" stop-color="#FA646A" stop-opacity="0"/>
</linearGradient>
</defs>
</svg>
