<svg width="29" height="28" viewBox="0 0 29 28" fill="none" xmlns="http://www.w3.org/2000/svg">
<path d="M26.0005 3.75391H20.7505V1.75391C20.7505 1.61641 20.638 1.50391 20.5005 1.50391H18.7505C18.613 1.50391 18.5005 1.61641 18.5005 1.75391V3.75391H10.5005V1.75391C10.5005 1.61641 10.388 1.50391 10.2505 1.50391H8.50049C8.36299 1.50391 8.25049 1.61641 8.25049 1.75391V3.75391H3.00049C2.44736 3.75391 2.00049 4.20078 2.00049 4.75391V25.5039C2.00049 26.057 2.44736 26.5039 3.00049 26.5039H26.0005C26.5536 26.5039 27.0005 26.057 27.0005 25.5039V4.75391C27.0005 4.20078 26.5536 3.75391 26.0005 3.75391ZM24.7505 24.2539H4.25049V6.00391H8.25049V7.50391C8.25049 7.64141 8.36299 7.75391 8.50049 7.75391H10.2505C10.388 7.75391 10.5005 7.64141 10.5005 7.50391V6.00391H18.5005V7.50391C18.5005 7.64141 18.613 7.75391 18.7505 7.75391H20.5005C20.638 7.75391 20.7505 7.64141 20.7505 7.50391V6.00391H24.7505V24.2539ZM20.0005 11.1289H18.2755C18.1161 11.1289 17.963 11.207 17.8692 11.3352L13.1536 17.8289L11.1317 15.0477C11.038 14.9195 10.888 14.8414 10.7255 14.8414H9.00049C8.79736 14.8414 8.67861 15.0727 8.79736 15.2383L12.7474 20.6758C12.7941 20.7397 12.8552 20.7917 12.9258 20.8276C12.9964 20.8634 13.0744 20.8821 13.1536 20.8821C13.2328 20.8821 13.3108 20.8634 13.3814 20.8276C13.452 20.7917 13.5132 20.7397 13.5599 20.6758L20.2036 11.5289C20.3224 11.3602 20.2036 11.1289 20.0005 11.1289Z" fill="black"/>
</svg>
